<svg width="428" height="342" viewBox="0 0 428 342" fill="none" xmlns="http://www.w3.org/2000/svg">
<path d="M-5.62513 168.383C-115.17 213.611 -20.0718 322.655 41.1704 371.523C52.1483 382.552 85.6483 399.33 131.826 378.208C189.547 351.805 92.526 469.534 182.324 428.941C272.121 388.348 259.325 514.74 287.646 412.385C315.968 310.03 318.956 237.078 207.514 272.805C96.0728 308.531 131.306 111.849 -5.62513 168.383Z" fill="url(#paint0_linear_6_36)"/>
<path d="M8.97994 245.428C-141.532 311.219 26.6993 397.952 101.905 458.947C115.112 472.872 157.45 493.112 221.144 462.667C300.762 424.61 158.094 585.294 281.897 526.724C405.701 468.154 373.518 635.528 423.361 498.975C473.205 362.422 400.391 248.286 248.513 301.656C96.6352 355.027 197.12 163.189 8.97994 245.428Z" fill="url(#paint1_linear_6_36)"/>
<defs>
<linearGradient id="paint0_linear_6_36" x1="282.27" y1="442.256" x2="-2.79833" y2="153.717" gradientUnits="userSpaceOnUse">
<stop stop-color="#CC2B5E"/>
<stop offset="1" stop-color="#753A88"/>
</linearGradient>
<linearGradient id="paint1_linear_6_36" x1="412.641" y1="538.664" x2="69.7161" y2="174.437" gradientUnits="userSpaceOnUse">
<stop stop-color="#AA076B"/>
<stop offset="1" stop-color="#61045F"/>
</linearGradient>
</defs>
</svg>
