<svg width="428" height="688" viewBox="0 0 428 688" fill="none" xmlns="http://www.w3.org/2000/svg">
<path d="M350.252 302.451C424.731 139.244 227.598 126.59 122.907 128.085C102.211 125.607 112.647 133.713 83 205C45.9414 294.109 -13.3773 60.3139 -71.439 198.358C-129.501 336.403 -218.834 256.077 -161 408C-103.166 559.923 -13 336.451 100 302.451C243.871 259.162 257.153 506.46 350.252 302.451Z" fill="url(#paint0_linear_4_16)"/>
<path d="M433.686 361.362C673.986 256.207 427.472 5.3626 311.845 -45.5517C290.66 -59.7149 229.422 -65.4715 153.948 24.8075C59.6054 137.656 203.365 -214.834 56.4983 -40.3431C-90.3686 134.148 -93.8004 -158.418 -122.033 95.3863C-150.265 349.191 -140.69 513.923 44.5358 329.892C229.761 145.862 198.353 464.342 433.686 361.362Z" fill="url(#paint1_linear_4_16)"/>
<defs>
<linearGradient id="paint0_linear_4_16" x1="-185.801" y1="281.207" x2="355.159" y2="328.447" gradientUnits="userSpaceOnUse">
<stop stop-color="#CC2B5E"/>
<stop offset="1" stop-color="#753A88"/>
</linearGradient>
<linearGradient id="paint1_linear_4_16" x1="-118.782" y1="24.031" x2="472.785" y2="312.438" gradientUnits="userSpaceOnUse">
<stop stop-color="#AA076B"/>
<stop offset="1" stop-color="#61045F"/>
</linearGradient>
</defs>
</svg>
