<svg width="739" height="649" viewBox="0 0 739 649" fill="none" xmlns="http://www.w3.org/2000/svg">
<path d="M612.308 489.743C700.76 410.865 574.978 339.36 501.029 313.468C487.024 306.685 449.863 301.916 413.256 337.108C367.498 381.097 420.178 237.926 348.833 305.905C277.487 373.885 247.81 250.362 254.893 356.327C261.976 462.292 283.256 532.134 376.638 461.597C470.02 391.06 501.742 588.34 612.308 489.743Z" fill="url(#paint0_linear_8_71)"/>
<path d="M573.07 421.849C693.396 310.028 505.957 283.742 414.824 251.017C397.757 242.236 351.11 237.12 301.05 286.898C238.475 349.121 320.049 150.326 222.546 246.508C125.042 342.69 100.124 174.081 98.1916 319.434C96.2591 464.786 202.691 548.459 328.41 447.91C454.129 347.362 422.662 561.625 573.07 421.849Z" fill="url(#paint1_linear_8_71)"/>
<defs>
<linearGradient id="paint0_linear_8_71" x1="250.099" y1="326.357" x2="614.485" y2="504.52" gradientUnits="userSpaceOnUse">
<stop stop-color="#CC2B5E"/>
<stop offset="1" stop-color="#753A88"/>
</linearGradient>
<linearGradient id="paint1_linear_8_71" x1="95.1984" y1="278.432" x2="539.197" y2="508.919" gradientUnits="userSpaceOnUse">
<stop stop-color="#AA076B"/>
<stop offset="1" stop-color="#61045F"/>
</linearGradient>
</defs>
</svg>
