<svg width="428" height="396" viewBox="0 0 428 396" fill="none" xmlns="http://www.w3.org/2000/svg">
<path d="M508.308 153.743C596.761 74.8647 470.978 3.36016 397.029 -22.5324C383.024 -29.3154 345.863 -34.0837 309.256 1.10753C263.498 45.0966 316.178 -98.0742 244.833 -30.0946C173.487 37.8851 143.81 -85.6378 150.893 20.327C157.976 126.292 179.256 196.135 272.638 125.597C366.02 55.0604 397.742 252.34 508.308 153.743Z" fill="url(#paint0_linear_8_71)"/>
<path d="M469.07 85.8486C589.396 -25.9723 401.957 -52.2584 310.824 -84.9832C293.757 -93.7637 247.11 -98.88 197.05 -49.1017C134.475 13.1211 216.049 -185.674 118.546 -89.4918C21.0425 6.69027 -3.87595 -161.919 -5.80842 -16.5661C-7.7409 128.786 98.6908 212.459 224.41 111.91C350.129 11.3616 318.662 225.625 469.07 85.8486Z" fill="url(#paint1_linear_8_71)"/>
<defs>
<linearGradient id="paint0_linear_8_71" x1="146.099" y1="-9.6433" x2="510.485" y2="168.52" gradientUnits="userSpaceOnUse">
<stop stop-color="#CC2B5E"/>
<stop offset="1" stop-color="#753A88"/>
</linearGradient>
<linearGradient id="paint1_linear_8_71" x1="-8.80164" y1="-57.5684" x2="435.197" y2="172.919" gradientUnits="userSpaceOnUse">
<stop stop-color="#AA076B"/>
<stop offset="1" stop-color="#61045F"/>
</linearGradient>
</defs>
</svg>
